<?xml version="1.0" encoding="UTF-8"?>
<svg xmlns="http://www.w3.org/2000/svg" xmlns:xlink="http://www.w3.org/1999/xlink" width="3750" height="2501.25" viewBox="0 0 3750 2501.25">
<defs>
<linearGradient id="linear-pattern-0" gradientUnits="userSpaceOnUse" x1="-0.000000128533" y1="0" x2="1" y2="0" gradientTransform="matrix(3750, 0, 0, -3750, 0.000482, 1250.62)">
<stop offset="0" stop-color="rgb(0%, 0%, 25.097656%)" stop-opacity="1"/>
<stop offset="0.0078125" stop-color="rgb(0%, 0%, 25.209045%)" stop-opacity="1"/>
<stop offset="0.015625" stop-color="rgb(0%, 0%, 25.431824%)" stop-opacity="1"/>
<stop offset="0.0234375" stop-color="rgb(0%, 0%, 25.656128%)" stop-opacity="1"/>
<stop offset="0.03125" stop-color="rgb(0%, 0%, 25.880432%)" stop-opacity="1"/>
<stop offset="0.0390625" stop-color="rgb(0%, 0%, 26.10321%)" stop-opacity="1"/>
<stop offset="0.046875" stop-color="rgb(0%, 0%, 26.327515%)" stop-opacity="1"/>
<stop offset="0.0546875" stop-color="rgb(0%, 0%, 26.551819%)" stop-opacity="1"/>
<stop offset="0.0625" stop-color="rgb(0%, 0%, 26.774597%)" stop-opacity="1"/>
<stop offset="0.0703125" stop-color="rgb(0%, 0%, 26.998901%)" stop-opacity="1"/>
<stop offset="0.078125" stop-color="rgb(0%, 0%, 27.223206%)" stop-opacity="1"/>
<stop offset="0.0859375" stop-color="rgb(0%, 0%, 27.445984%)" stop-opacity="1"/>
<stop offset="0.09375" stop-color="rgb(0%, 0%, 27.670288%)" stop-opacity="1"/>
<stop offset="0.101563" stop-color="rgb(0%, 0%, 27.894592%)" stop-opacity="1"/>
<stop offset="0.109375" stop-color="rgb(0%, 0%, 28.117371%)" stop-opacity="1"/>
<stop offset="0.117188" stop-color="rgb(0%, 0%, 28.341675%)" stop-opacity="1"/>
<stop offset="0.125" stop-color="rgb(0%, 0%, 28.565979%)" stop-opacity="1"/>
<stop offset="0.132813" stop-color="rgb(0%, 0%, 28.788757%)" stop-opacity="1"/>
<stop offset="0.140625" stop-color="rgb(0%, 0%, 29.013062%)" stop-opacity="1"/>
<stop offset="0.148438" stop-color="rgb(0%, 0%, 29.237366%)" stop-opacity="1"/>
<stop offset="0.15625" stop-color="rgb(0%, 0%, 29.460144%)" stop-opacity="1"/>
<stop offset="0.164063" stop-color="rgb(0%, 0%, 29.684448%)" stop-opacity="1"/>
<stop offset="0.171875" stop-color="rgb(0%, 0%, 29.908752%)" stop-opacity="1"/>
<stop offset="0.179688" stop-color="rgb(0%, 0%, 30.133057%)" stop-opacity="1"/>
<stop offset="0.1875" stop-color="rgb(0%, 0%, 30.355835%)" stop-opacity="1"/>
<stop offset="0.195313" stop-color="rgb(0%, 0%, 30.580139%)" stop-opacity="1"/>
<stop offset="0.203125" stop-color="rgb(0%, 0%, 30.804443%)" stop-opacity="1"/>
<stop offset="0.210938" stop-color="rgb(0%, 0%, 31.027222%)" stop-opacity="1"/>
<stop offset="0.21875" stop-color="rgb(0%, 0%, 31.251526%)" stop-opacity="1"/>
<stop offset="0.226563" stop-color="rgb(0%, 0%, 31.47583%)" stop-opacity="1"/>
<stop offset="0.234375" stop-color="rgb(0%, 0%, 31.698608%)" stop-opacity="1"/>
<stop offset="0.242188" stop-color="rgb(0%, 0%, 31.922913%)" stop-opacity="1"/>
<stop offset="0.25" stop-color="rgb(0%, 0%, 32.147217%)" stop-opacity="1"/>
<stop offset="0.257812" stop-color="rgb(0%, 0%, 32.369995%)" stop-opacity="1"/>
<stop offset="0.265625" stop-color="rgb(0%, 0%, 32.594299%)" stop-opacity="1"/>
<stop offset="0.273438" stop-color="rgb(0%, 0%, 32.818604%)" stop-opacity="1"/>
<stop offset="0.28125" stop-color="rgb(0%, 0%, 33.041382%)" stop-opacity="1"/>
<stop offset="0.289062" stop-color="rgb(0%, 0%, 33.265686%)" stop-opacity="1"/>
<stop offset="0.296875" stop-color="rgb(0%, 0%, 33.48999%)" stop-opacity="1"/>
<stop offset="0.304688" stop-color="rgb(0%, 0%, 33.712769%)" stop-opacity="1"/>
<stop offset="0.3125" stop-color="rgb(0%, 0%, 33.937073%)" stop-opacity="1"/>
<stop offset="0.320312" stop-color="rgb(0%, 0%, 34.161377%)" stop-opacity="1"/>
<stop offset="0.328125" stop-color="rgb(0%, 0%, 34.384155%)" stop-opacity="1"/>
<stop offset="0.335938" stop-color="rgb(0%, 0%, 34.608459%)" stop-opacity="1"/>
<stop offset="0.34375" stop-color="rgb(0%, 0%, 34.832764%)" stop-opacity="1"/>
<stop offset="0.351562" stop-color="rgb(0%, 0%, 35.055542%)" stop-opacity="1"/>
<stop offset="0.359375" stop-color="rgb(0%, 0%, 35.279846%)" stop-opacity="1"/>
<stop offset="0.367188" stop-color="rgb(0%, 0%, 35.50415%)" stop-opacity="1"/>
<stop offset="0.375" stop-color="rgb(0%, 0%, 35.726929%)" stop-opacity="1"/>
<stop offset="0.390625" stop-color="rgb(0%, 0%, 36.000061%)" stop-opacity="1"/>
<stop offset="0.40625" stop-color="rgb(0%, 0%, 36.248779%)" stop-opacity="1"/>
<stop offset="0.4375" stop-color="rgb(0%, 0%, 36.515808%)" stop-opacity="1"/>
<stop offset="0.46875" stop-color="rgb(0%, 0%, 36.871338%)" stop-opacity="1"/>
<stop offset="0.5" stop-color="rgb(0%, 0%, 37.228394%)" stop-opacity="1"/>
<stop offset="0.53125" stop-color="rgb(0%, 0%, 37.583923%)" stop-opacity="1"/>
<stop offset="0.5625" stop-color="rgb(0%, 0%, 37.939453%)" stop-opacity="1"/>
<stop offset="0.59375" stop-color="rgb(0%, 0%, 38.294983%)" stop-opacity="1"/>
<stop offset="0.625" stop-color="rgb(0%, 0%, 38.650513%)" stop-opacity="1"/>
<stop offset="0.65625" stop-color="rgb(0%, 0%, 39.007568%)" stop-opacity="1"/>
<stop offset="0.671875" stop-color="rgb(0%, 0%, 39.002991%)" stop-opacity="1"/>
<stop offset="0.679688" stop-color="rgb(0%, 0%, 38.703918%)" stop-opacity="1"/>
<stop offset="0.6875" stop-color="rgb(0%, 0%, 38.468933%)" stop-opacity="1"/>
<stop offset="0.695312" stop-color="rgb(0%, 0%, 38.232422%)" stop-opacity="1"/>
<stop offset="0.703125" stop-color="rgb(0%, 0%, 37.997437%)" stop-opacity="1"/>
<stop offset="0.710938" stop-color="rgb(0%, 0%, 37.762451%)" stop-opacity="1"/>
<stop offset="0.71875" stop-color="rgb(0%, 0%, 37.527466%)" stop-opacity="1"/>
<stop offset="0.726562" stop-color="rgb(0%, 0%, 37.290955%)" stop-opacity="1"/>
<stop offset="0.734375" stop-color="rgb(0%, 0%, 37.055969%)" stop-opacity="1"/>
<stop offset="0.742188" stop-color="rgb(0%, 0%, 36.820984%)" stop-opacity="1"/>
<stop offset="0.75" stop-color="rgb(0%, 0%, 36.585999%)" stop-opacity="1"/>
<stop offset="0.757812" stop-color="rgb(0%, 0%, 36.349487%)" stop-opacity="1"/>
<stop offset="0.765625" stop-color="rgb(0%, 0%, 36.114502%)" stop-opacity="1"/>
<stop offset="0.773438" stop-color="rgb(0%, 0%, 35.879517%)" stop-opacity="1"/>
<stop offset="0.78125" stop-color="rgb(0%, 0%, 35.644531%)" stop-opacity="1"/>
<stop offset="0.789062" stop-color="rgb(0%, 0%, 35.409546%)" stop-opacity="1"/>
<stop offset="0.796875" stop-color="rgb(0%, 0%, 35.173035%)" stop-opacity="1"/>
<stop offset="0.804688" stop-color="rgb(0%, 0%, 34.938049%)" stop-opacity="1"/>
<stop offset="0.8125" stop-color="rgb(0%, 0%, 34.703064%)" stop-opacity="1"/>
<stop offset="0.820312" stop-color="rgb(0%, 0%, 34.468079%)" stop-opacity="1"/>
<stop offset="0.828125" stop-color="rgb(0%, 0%, 34.231567%)" stop-opacity="1"/>
<stop offset="0.835938" stop-color="rgb(0%, 0%, 33.996582%)" stop-opacity="1"/>
<stop offset="0.84375" stop-color="rgb(0%, 0%, 33.761597%)" stop-opacity="1"/>
<stop offset="0.851562" stop-color="rgb(0%, 0%, 33.526611%)" stop-opacity="1"/>
<stop offset="0.859375" stop-color="rgb(0%, 0%, 33.2901%)" stop-opacity="1"/>
<stop offset="0.867188" stop-color="rgb(0%, 0%, 33.055115%)" stop-opacity="1"/>
<stop offset="0.875" stop-color="rgb(0%, 0%, 32.820129%)" stop-opacity="1"/>
<stop offset="0.882812" stop-color="rgb(0%, 0%, 32.585144%)" stop-opacity="1"/>
<stop offset="0.890625" stop-color="rgb(0%, 0%, 32.348633%)" stop-opacity="1"/>
<stop offset="0.898438" stop-color="rgb(0%, 0%, 32.113647%)" stop-opacity="1"/>
<stop offset="0.90625" stop-color="rgb(0%, 0%, 31.878662%)" stop-opacity="1"/>
<stop offset="0.914062" stop-color="rgb(0%, 0%, 31.643677%)" stop-opacity="1"/>
<stop offset="0.921875" stop-color="rgb(0%, 0%, 31.343079%)" stop-opacity="1"/>
<stop offset="0.925781" stop-color="rgb(0%, 0%, 30.857849%)" stop-opacity="1"/>
<stop offset="0.929688" stop-color="rgb(0%, 0%, 30.555725%)" stop-opacity="1"/>
<stop offset="0.933594" stop-color="rgb(0%, 0%, 30.252075%)" stop-opacity="1"/>
<stop offset="0.9375" stop-color="rgb(0%, 0%, 29.948425%)" stop-opacity="1"/>
<stop offset="0.941406" stop-color="rgb(0%, 0%, 29.644775%)" stop-opacity="1"/>
<stop offset="0.945312" stop-color="rgb(0%, 0%, 29.342651%)" stop-opacity="1"/>
<stop offset="0.949219" stop-color="rgb(0%, 0%, 29.039001%)" stop-opacity="1"/>
<stop offset="0.953125" stop-color="rgb(0%, 0%, 28.735352%)" stop-opacity="1"/>
<stop offset="0.957031" stop-color="rgb(0%, 0%, 28.431702%)" stop-opacity="1"/>
<stop offset="0.960938" stop-color="rgb(0%, 0%, 28.129578%)" stop-opacity="1"/>
<stop offset="0.964844" stop-color="rgb(0%, 0%, 27.825928%)" stop-opacity="1"/>
<stop offset="0.96875" stop-color="rgb(0%, 0%, 27.522278%)" stop-opacity="1"/>
<stop offset="0.972656" stop-color="rgb(0%, 0%, 27.218628%)" stop-opacity="1"/>
<stop offset="0.976562" stop-color="rgb(0%, 0%, 26.916504%)" stop-opacity="1"/>
<stop offset="0.980469" stop-color="rgb(0%, 0%, 26.612854%)" stop-opacity="1"/>
<stop offset="0.984375" stop-color="rgb(0%, 0%, 26.31073%)" stop-opacity="1"/>
<stop offset="0.988281" stop-color="rgb(0%, 0%, 26.00708%)" stop-opacity="1"/>
<stop offset="0.992188" stop-color="rgb(0%, 0%, 25.70343%)" stop-opacity="1"/>
<stop offset="0.996094" stop-color="rgb(0%, 0%, 25.39978%)" stop-opacity="1"/>
<stop offset="1" stop-color="rgb(0%, 0%, 25.097656%)" stop-opacity="1"/>
</linearGradient>
</defs>
<path fill-rule="nonzero" fill="url(#linear-pattern-0)" d="M 0 2501.25 L 0 0 L 3750 0 L 3750 2501.25 Z M 0 2501.25 "/>
<path fill-rule="nonzero" fill="rgb(96.875%, 77.34375%, 37.646484%)" fill-opacity="1" d="M 1665.910156 703.539062 L 1948.648438 597.648438 C 1956.089844 594.859375 1963.820312 597.261719 1965.96875 603.019531 C 1965.96875 603.019531 1934.488281 739.089844 1958.070312 797.351562 C 1979.058594 849.199219 1809.371094 916.449219 1790.011719 860.289062 C 1770.640625 804.148438 1656.390625 718.96875 1656.390625 718.96875 C 1656.390625 718.96875 1658.480469 706.328125 1665.910156 703.539062 "/>
<path fill-rule="nonzero" fill="rgb(96.875%, 77.34375%, 37.646484%)" fill-opacity="1" d="M 1962.429688 525.050781 C 1979.519531 570.671875 1977.21875 621.421875 1956.058594 666.128906 C 1934.890625 710.839844 1896.578125 745.859375 1849.558594 763.46875 C 1751.640625 800.140625 1643.421875 752.859375 1607.839844 657.859375 C 1572.25 562.859375 1622.789062 456.109375 1720.710938 419.441406 C 1767.730469 401.828125 1819.609375 403.058594 1864.941406 422.859375 C 1910.28125 442.671875 1945.339844 479.429688 1962.429688 525.050781 "/>
<path fill-rule="nonzero" fill="rgb(100%, 100%, 100%)" fill-opacity="1" d="M 2003.511719 332.128906 C 2001.539062 332.769531 1999.75 333.859375 1998.289062 335.320312 C 1953.328125 378.800781 1988.808594 345.378906 1943.980469 388.738281 C 1940.519531 391.980469 1939.078125 396.828125 1940.210938 401.429688 C 1941.339844 406.03125 1944.859375 409.671875 1949.421875 410.949219 C 1953.980469 412.230469 1958.871094 410.960938 1962.230469 407.609375 C 2007.191406 364.128906 1971.710938 397.550781 2016.539062 354.191406 C 2021.019531 349.980469 2021.980469 343.230469 2018.851562 337.941406 C 2015.730469 332.660156 2009.351562 330.238281 2003.511719 332.128906 "/>
<path fill-rule="nonzero" fill="rgb(100%, 100%, 100%)" fill-opacity="1" d="M 1448.441406 534.238281 C 1442.46875 536.308594 1438.820312 542.339844 1439.75 548.578125 C 1440.691406 554.828125 1445.929688 559.53125 1452.238281 559.769531 C 1514.53125 563.011719 1465.820312 561.121094 1528.289062 564.371094 C 1533.011719 564.679688 1537.539062 562.429688 1540.140625 558.46875 C 1542.738281 554.5 1543 549.449219 1540.828125 545.238281 C 1538.660156 541.03125 1534.390625 538.320312 1529.648438 538.140625 C 1467.371094 534.898438 1516.070312 536.789062 1453.609375 533.539062 C 1451.859375 533.429688 1450.101562 533.660156 1448.441406 534.238281 "/>
<path fill-rule="nonzero" fill="rgb(100%, 100%, 100%)" fill-opacity="1" d="M 1793.351562 224.601562 C 1788.511719 226.171875 1785.078125 230.46875 1784.628906 235.539062 C 1778.488281 295.410156 1782.671875 248.558594 1776.511719 308.609375 C 1775.980469 313.140625 1777.941406 317.609375 1781.628906 320.300781 C 1785.320312 322.988281 1790.171875 323.480469 1794.320312 321.601562 C 1798.480469 319.710938 1801.308594 315.738281 1801.710938 311.191406 C 1807.859375 251.320312 1803.671875 298.171875 1809.839844 238.128906 C 1810.339844 233.839844 1808.628906 229.601562 1805.289062 226.859375 C 1801.960938 224.121094 1797.460938 223.269531 1793.351562 224.601562 "/>
<path fill-rule="nonzero" fill="rgb(100%, 100%, 100%)" fill-opacity="1" d="M 1534.859375 334.378906 C 1531 335.730469 1528.128906 339.011719 1527.308594 343.011719 C 1526.488281 347.019531 1527.839844 351.171875 1530.871094 353.921875 C 1571.210938 391.628906 1540.160156 361.828125 1580.390625 399.441406 C 1583.410156 402.320312 1587.738281 403.359375 1591.730469 402.148438 C 1595.71875 400.949219 1598.761719 397.699219 1599.691406 393.640625 C 1600.621094 389.570312 1599.300781 385.320312 1596.21875 382.5 C 1555.878906 344.789062 1586.929688 374.589844 1546.699219 336.980469 C 1543.558594 333.960938 1538.980469 332.960938 1534.859375 334.378906 "/>
<path fill-rule="nonzero" fill="rgb(33.325195%, 59.959412%, 100%)" fill-opacity="1" d="M 1795.550781 891.75 C 1817.859375 951.320312 1871.78125 975.300781 1920.390625 957.089844 C 1969 938.878906 1993.898438 885.378906 1971.589844 825.808594 C 1949.28125 766.238281 1912.691406 788.519531 1864.070312 806.71875 C 1815.460938 824.929688 1773.238281 832.179688 1795.550781 891.75 "/>
<path fill-rule="nonzero" fill="rgb(33.325195%, 59.959412%, 100%)" fill-opacity="1" d="M 1804.351562 876.300781 L 1957.109375 819.078125 C 1969.890625 814.300781 1983.691406 819.839844 1988.058594 831.5 L 1988.988281 833.980469 C 1993.359375 845.648438 1986.589844 858.890625 1973.808594 863.679688 L 1821.058594 920.890625 C 1808.28125 925.679688 1794.46875 920.140625 1790.101562 908.46875 L 1789.171875 905.988281 C 1784.800781 894.328125 1791.570312 881.078125 1804.351562 876.300781 "/>
<path fill-rule="nonzero" fill="rgb(33.325195%, 59.959412%, 100%)" fill-opacity="1" d="M 1788.988281 835.269531 L 1941.738281 778.058594 C 1954.519531 773.269531 1968.328125 778.808594 1972.699219 790.480469 L 1973.621094 792.960938 C 1977.988281 804.621094 1971.21875 817.871094 1958.441406 822.648438 L 1805.691406 879.871094 C 1792.910156 884.648438 1779.101562 879.109375 1774.738281 867.449219 L 1773.808594 864.96875 C 1769.441406 853.300781 1776.210938 840.058594 1788.988281 835.269531 "/>
<path fill-rule="nonzero" fill="rgb(96.875%, 77.34375%, 37.646484%)" fill-opacity="1" d="M 2702.921875 1545.726562 C 2702.921875 1558.445312 2702.921875 1575.742188 2702.910156 1599.996094 C 2702.910156 1617.128906 2702.910156 1631.742188 2702.910156 1651.945312 C 2702.910156 1697.894531 2702.898438 1748.929688 2702.898438 1791.996094 C 2702.898438 1802.007812 2702.898438 1842.421875 2702.898438 1820.578125 C 2702.898438 1779.050781 2702.890625 1898.324219 2702.890625 1898.324219 C 2702.890625 2018.492188 3101.359375 2030.574219 3114.460938 1905.613281 C 3114.460938 1905.613281 3114.410156 1897.539062 3114.328125 1858.460938 C 3114.308594 1847.050781 3114.289062 1804.160156 3114.261719 1792.058594 C 3114.171875 1749.386719 3114.070312 1712.195312 3114 1656.636719 C 3113.980469 1637.035156 3113.949219 1617.21875 3113.941406 1597.59375 C 3113.910156 1570.792969 3113.898438 1551.726562 3113.898438 1526.6875 C 3104.988281 1398.449219 2699.878906 1399.601562 2702.921875 1514.4375 L 2702.921875 1545.726562 "/>
<path fill-rule="nonzero" fill="rgb(100%, 100%, 100%)" fill-opacity="1" d="M 2703.078125 1556.085938 C 2695.71875 1540.328125 2703.078125 1598.894531 2703.078125 1619.101562 C 2703.078125 1681.722656 3114.171875 1688.105469 3114.171875 1623.789062 C 3114.140625 1604.191406 3114.121094 1584.371094 3114.101562 1564.746094 C 3114.101562 1630.441406 2735.179688 1624.730469 2703.078125 1556.085938 "/>
<path fill-rule="nonzero" fill="rgb(100%, 100%, 100%)" fill-opacity="1" d="M 2703.078125 1719.730469 C 2695.71875 1703.976562 2703.078125 1762.542969 2703.078125 1782.746094 C 2703.078125 1845.367188 3114.171875 1851.753906 3114.171875 1787.4375 C 3114.140625 1767.839844 3114.121094 1748.019531 3114.101562 1728.394531 C 3114.101562 1794.089844 2735.179688 1788.375 2703.078125 1719.730469 "/>
<path fill-rule="nonzero" fill="rgb(94.921875%, 94.921875%, 94.921875%)" fill-opacity="1" d="M 1184.050781 1796.425781 L 570.925781 1794.6875 C 558.210938 1794.644531 547.980469 1803.914062 547.996094 1815.460938 L 548.449219 1900.914062 C 548.460938 1912.460938 558.71875 1921.785156 571.433594 1921.820312 L 1184.558594 1923.558594 C 1197.28125 1923.601562 1207.5 1914.328125 1207.488281 1902.785156 L 1207.039062 1817.328125 C 1207.03125 1805.785156 1196.769531 1796.460938 1184.050781 1796.425781 "/>
<path fill-rule="nonzero" fill="rgb(33.325195%, 59.959412%, 100%)" fill-opacity="1" d="M 647.382812 1939.269531 L 1212.800781 1939.269531 C 1237.519531 1940.039062 1241.378906 1907.023438 1212.800781 1904.605469 L 644.199219 1904.605469 C 627.878906 1904.605469 603.527344 1903.40625 592.511719 1901.015625 C 581.632812 1898.53125 573.140625 1894.1875 567.035156 1887.984375 C 561.0625 1881.78125 558.078125 1868.269531 558.078125 1857.101562 C 558.078125 1841.679688 564.183594 1825.949219 576.390625 1819.570312 C 588.730469 1813.1875 618.058594 1809.996094 643.003906 1809.996094 L 1212.800781 1809.996094 C 1242.910156 1806.066406 1234.800781 1774.984375 1212.800781 1775.332031 L 647.382812 1775.332031 C 615.648438 1775.679688 571.691406 1776.378906 550.054688 1795.105469 C 540.894531 1803.03125 533.070312 1811.941406 528.558594 1821.335938 C 524.046875 1830.730469 521.789062 1841.722656 521.789062 1854.308594 C 521.789062 1869.289062 524.179688 1882.183594 528.957031 1893 C 533.867188 1903.8125 541.363281 1912.632812 551.445312 1919.457031 C 561.664062 1926.28125 574.667969 1931.289062 590.457031 1934.480469 C 606.382812 1937.671875 625.355469 1939.269531 647.382812 1939.269531 "/>
<path fill-rule="nonzero" fill="rgb(96.875%, 77.34375%, 37.646484%)" fill-opacity="1" d="M 1275.46875 1635.703125 L 672.660156 1633.726562 C 659.316406 1633.679688 648.589844 1644.234375 648.605469 1657.382812 L 649.078125 1754.699219 C 649.09375 1767.84375 659.851562 1778.460938 673.191406 1778.503906 L 1276.011719 1780.484375 C 1289.351562 1780.53125 1300.078125 1769.972656 1300.058594 1756.824219 L 1299.589844 1659.511719 C 1299.578125 1646.363281 1288.820312 1635.746094 1275.46875 1635.703125 "/>
<path fill-rule="nonzero" fill="rgb(100%, 100%, 100%)" fill-opacity="1" d="M 765.746094 1660.171875 C 791.566406 1660.171875 812.679688 1681.285156 812.679688 1707.105469 C 812.679688 1732.921875 791.566406 1754.039062 765.746094 1754.039062 C 739.929688 1754.039062 718.8125 1732.921875 718.8125 1707.105469 C 718.8125 1681.285156 739.929688 1660.171875 765.746094 1660.171875 Z M 765.746094 1677.515625 C 749.300781 1677.515625 736.15625 1690.660156 736.15625 1707.105469 C 736.15625 1723.550781 749.300781 1736.695312 765.746094 1736.695312 C 782.191406 1736.695312 795.335938 1723.550781 795.335938 1707.105469 C 795.335938 1690.660156 782.191406 1677.515625 765.746094 1677.515625 "/>
<path fill-rule="nonzero" fill="rgb(100%, 100%, 100%)" fill-opacity="1" d="M 1146.898438 1652.589844 C 1141.679688 1654.914062 1138.351562 1660.136719 1138.449219 1665.851562 C 1138.679688 1733.492188 1137.800781 1680.640625 1138.039062 1748.476562 C 1137.988281 1753.605469 1140.710938 1758.367188 1145.148438 1760.9375 C 1149.589844 1763.503906 1155.070312 1763.484375 1159.488281 1760.886719 C 1163.921875 1758.285156 1166.601562 1753.507812 1166.519531 1748.378906 C 1166.28125 1680.734375 1167.160156 1733.589844 1166.929688 1665.753906 C 1166.980469 1660.90625 1164.558594 1656.363281 1160.511719 1653.699219 C 1156.460938 1651.039062 1151.328125 1650.617188 1146.898438 1652.589844 "/>
<path fill-rule="nonzero" fill="rgb(33.325195%, 59.959412%, 100%)" fill-opacity="1" d="M 1195.070312 1652.589844 C 1189.851562 1654.914062 1186.519531 1660.136719 1186.621094 1665.851562 C 1186.851562 1733.492188 1185.96875 1680.640625 1186.210938 1748.476562 C 1186.160156 1753.605469 1188.871094 1758.367188 1193.320312 1760.9375 C 1197.761719 1763.503906 1203.238281 1763.484375 1207.660156 1760.886719 C 1212.078125 1758.285156 1214.769531 1753.507812 1214.679688 1748.378906 C 1214.449219 1680.734375 1215.328125 1733.589844 1215.101562 1665.753906 C 1215.148438 1660.90625 1212.730469 1656.363281 1208.679688 1653.699219 C 1204.628906 1651.039062 1199.5 1650.617188 1195.070312 1652.589844 "/>
<path fill-rule="nonzero" fill="rgb(100%, 100%, 100%)" fill-opacity="1" d="M 1098.730469 1652.589844 C 1093.511719 1654.914062 1090.179688 1660.136719 1090.28125 1665.851562 C 1090.511719 1733.492188 1089.628906 1680.640625 1089.871094 1748.476562 C 1089.820312 1753.605469 1092.539062 1758.367188 1096.980469 1760.9375 C 1101.421875 1763.503906 1106.898438 1763.484375 1111.320312 1760.886719 C 1115.75 1758.285156 1118.429688 1753.507812 1118.351562 1748.378906 C 1118.109375 1680.734375 1118.988281 1733.589844 1118.761719 1665.753906 C 1118.808594 1660.90625 1116.390625 1656.363281 1112.339844 1653.699219 C 1108.289062 1651.039062 1103.160156 1650.617188 1098.730469 1652.589844 "/>
<path fill-rule="nonzero" fill="rgb(96.875%, 77.34375%, 37.646484%)" fill-opacity="1" d="M 664.40625 1963.484375 L 663.90625 1817.707031 C 663.894531 1813.195312 666.554688 1809.566406 669.867188 1809.574219 L 760.957031 1809.730469 C 764.269531 1809.738281 766.945312 1813.375 766.953125 1817.886719 L 767.453125 1963.667969 C 767.464844 1968.179688 764.804688 1971.808594 761.492188 1971.800781 L 715.164062 1925.703125 L 670.402344 1971.640625 C 667.089844 1971.636719 664.414062 1967.996094 664.40625 1963.484375 "/>
<path fill-rule="nonzero" fill="rgb(33.325195%, 59.959412%, 100%)" fill-opacity="1" d="M 1170.570312 1534.160156 L 599.480469 1532.183594 C 586.140625 1532.136719 575.410156 1542.691406 575.429688 1555.839844 L 575.898438 1612.777344 C 575.914062 1625.925781 586.671875 1636.542969 600.015625 1636.582031 L 1171.101562 1638.5625 C 1184.449219 1638.609375 1195.179688 1628.050781 1195.160156 1614.902344 L 1194.691406 1557.96875 C 1194.671875 1544.820312 1183.910156 1534.203125 1170.570312 1534.160156 "/>
<path fill-rule="nonzero" fill="rgb(100%, 100%, 100%)" fill-opacity="1" d="M 1102.75 1554.265625 L 1016.269531 1553.402344 C 1011.871094 1553.382812 1008.328125 1557.984375 1008.339844 1563.710938 L 1008.488281 1606.105469 C 1008.5 1611.835938 1012.039062 1616.460938 1016.441406 1616.480469 L 1102.921875 1617.339844 C 1107.320312 1617.363281 1110.859375 1612.761719 1110.851562 1607.035156 L 1110.691406 1564.636719 C 1110.691406 1558.910156 1107.140625 1554.285156 1102.75 1554.265625 "/>
<path fill-rule="nonzero" fill="rgb(100%, 100%, 100%)" fill-opacity="1" d="M 959.164062 842.589844 C 959.066406 847.210938 957.328125 853.488281 953.28125 862.441406 C 930.753906 912.25 923.074219 853.488281 878.609375 885.101562 C 834.144531 916.710938 887.199219 943.210938 832.714844 948.148438 C 778.226562 953.089844 825.097656 917.53125 775.1875 894.480469 C 725.28125 871.429688 729.339844 930.511719 697.382812 885.648438 C 665.421875 840.78125 719.972656 863.980469 714.527344 809.320312 C 709.082031 754.660156 660.089844 787.25 682.617188 737.441406 C 705.144531 687.640625 712.824219 746.390625 757.289062 714.789062 C 801.753906 683.179688 748.699219 656.679688 803.183594 651.738281 C 857.671875 646.800781 810.800781 682.359375 860.710938 705.410156 C 910.617188 728.460938 906.558594 669.371094 938.515625 714.238281 C 970.476562 759.101562 915.925781 735.910156 921.371094 790.558594 C 925.835938 835.398438 959.609375 821.53125 959.164062 842.589844 Z M 883.710938 801.988281 C 884.085938 784.511719 877.519531 767.539062 865.449219 754.800781 C 853.382812 742.058594 836.804688 734.589844 819.363281 734.050781 C 783.046875 732.921875 752.96875 761.511719 752.1875 797.898438 C 751.40625 834.289062 780.214844 864.710938 816.53125 865.828125 C 833.972656 866.378906 850.847656 859.949219 863.449219 847.980469 C 876.046875 836.011719 883.335938 819.460938 883.710938 801.988281 "/>
<path fill-rule="nonzero" fill="rgb(100%, 100%, 100%)" fill-opacity="1" d="M 1362.730469 917.511719 C 1362.589844 924.179688 1360.078125 933.28125 1354.21875 946.21875 C 1321.640625 1018.261719 1310.53125 933.269531 1246.21875 978.988281 C 1181.910156 1024.710938 1258.640625 1063.039062 1179.828125 1070.179688 C 1101.03125 1077.328125 1168.820312 1025.890625 1096.628906 992.550781 C 1024.441406 959.210938 1030.320312 1044.671875 984.089844 979.78125 C 937.863281 914.890625 1016.769531 948.441406 1008.890625 869.378906 C 1001.019531 790.328125 930.152344 837.460938 962.734375 765.421875 C 995.320312 693.378906 1006.429688 778.371094 1070.738281 732.648438 C 1135.050781 686.929688 1058.308594 648.601562 1137.121094 641.460938 C 1215.929688 634.308594 1148.140625 685.75 1220.328125 719.089844 C 1292.511719 752.429688 1286.640625 666.96875 1332.871094 731.859375 C 1379.089844 796.75 1300.191406 763.199219 1308.070312 842.261719 C 1314.53125 907.109375 1363.371094 887.050781 1362.730469 917.511719 Z M 1253.589844 858.78125 C 1254.140625 833.5 1244.640625 808.949219 1227.179688 790.519531 C 1209.730469 772.089844 1185.75 761.300781 1160.53125 760.519531 C 1108 758.890625 1064.488281 800.230469 1063.359375 852.871094 C 1062.230469 905.5 1103.898438 949.488281 1156.429688 951.121094 C 1181.660156 951.910156 1206.058594 942.621094 1224.289062 925.300781 C 1242.511719 907.980469 1253.050781 884.050781 1253.589844 858.78125 "/>
<path fill-rule="nonzero" fill="rgb(100%, 100%, 100%)" fill-opacity="1" d="M 1068.789062 1200.191406 C 1068.671875 1205.589844 1066.640625 1212.949219 1061.898438 1223.429688 C 1035.539062 1281.710938 1026.550781 1212.949219 974.515625 1249.941406 C 922.476562 1286.929688 984.566406 1317.949219 920.800781 1323.730469 C 857.035156 1329.511719 911.890625 1287.890625 853.480469 1260.921875 C 795.070312 1233.941406 799.820312 1303.089844 762.421875 1250.578125 C 725.019531 1198.078125 788.859375 1225.21875 782.488281 1161.261719 C 776.113281 1097.289062 718.777344 1135.421875 745.140625 1077.140625 C 771.503906 1018.851562 780.492188 1087.609375 832.53125 1050.621094 C 884.566406 1013.628906 822.476562 982.621094 886.242188 976.828125 C 950.007812 971.050781 895.15625 1012.671875 953.5625 1039.648438 C 1011.96875 1066.621094 1007.21875 997.46875 1044.621094 1049.980469 C 1082.03125 1102.480469 1018.179688 1075.339844 1024.558594 1139.308594 C 1029.78125 1191.78125 1069.308594 1175.550781 1068.789062 1200.191406 Z M 980.484375 1152.671875 C 980.921875 1132.21875 973.234375 1112.351562 959.113281 1097.441406 C 944.992188 1082.53125 925.589844 1073.800781 905.179688 1073.171875 C 862.675781 1071.851562 827.476562 1105.300781 826.5625 1147.890625 C 825.644531 1190.480469 859.359375 1226.070312 901.863281 1227.390625 C 922.273438 1228.03125 942.023438 1220.511719 956.769531 1206.5 C 971.511719 1192.488281 980.042969 1173.121094 980.484375 1152.671875 "/>
<path fill-rule="nonzero" fill="rgb(66.601562%, 80.076599%, 100%)" fill-opacity="1" d="M 1298.269531 919.5 L 2605.449219 919.5 C 2667.960938 919.5 2718.289062 965.070312 2718.289062 1021.671875 L 2718.289062 1881.664062 C 2718.289062 1938.273438 2667.960938 1983.84375 2605.449219 1983.84375 L 1298.269531 1983.84375 C 1235.761719 1983.84375 1185.421875 1938.273438 1185.421875 1881.664062 L 1185.421875 1021.671875 C 1185.421875 965.070312 1235.761719 919.5 1298.269531 919.5 "/>
<path fill-rule="nonzero" fill="rgb(100%, 100%, 100%)" fill-opacity="1" d="M 1343.53125 974.359375 L 2560.191406 974.359375 C 2618.378906 974.359375 2665.230469 990.128906 2665.230469 1048.859375 L 2665.230469 1791.203125 C 2665.230469 1849.933594 2672.578125 1897.210938 2590.101562 1897.210938 L 1304.28125 1897.210938 C 1229.269531 1897.210938 1238.488281 1849.933594 1238.488281 1791.203125 L 1238.488281 1048.859375 C 1238.488281 990.128906 1285.339844 974.359375 1343.53125 974.359375 "/>
<path fill-rule="nonzero" fill="rgb(66.601562%, 80.076599%, 100%)" fill-opacity="1" d="M 2813.128906 1937.21875 L 1087.941406 1937.21875 C 1072.210938 1954.5625 1097.660156 2016.628906 1124.949219 2017.578125 L 2778.769531 2017.578125 C 2822.378906 2014.335938 2834.390625 1937.988281 2813.128906 1937.21875 "/>
<path fill-rule="nonzero" fill="rgb(68.554688%, 77.734375%, 91.40625%)" fill-opacity="1" d="M 2184.53125 1938.121094 L 1721.960938 1938.121094 C 1711.761719 1938.121094 1703.539062 1943.4375 1703.539062 1950.042969 C 1703.539062 1956.648438 1711.761719 1961.96875 1721.960938 1961.96875 L 2184.53125 1961.96875 C 2194.730469 1961.96875 2202.949219 1956.648438 2202.949219 1950.042969 C 2202.949219 1943.4375 2194.730469 1938.121094 2184.53125 1938.121094 "/>
<path fill-rule="nonzero" fill="rgb(0%, 0%, 36.083984%)" fill-opacity="1" d="M 1446.429688 1379.148438 L 1762.191406 1143.769531 C 1767.699219 1139.660156 1776.628906 1143.808594 1780.878906 1150.941406 C 1785.128906 1158.078125 1783.039062 1165.421875 1777.519531 1169.53125 L 1461.761719 1404.910156 C 1456.25 1409.03125 1447.320312 1404.878906 1443.070312 1397.738281 C 1438.820312 1390.609375 1440.921875 1383.261719 1446.429688 1379.148438 "/>
<path fill-rule="nonzero" fill="rgb(33.325195%, 59.959412%, 100%)" fill-opacity="1" d="M 1417.78125 1370.539062 C 1416.441406 1382.691406 1420.121094 1394.878906 1428.019531 1404.449219 C 1435.929688 1414.019531 1447.398438 1420.171875 1459.921875 1421.550781 C 1485.980469 1424.429688 1509.378906 1406.269531 1512.179688 1380.980469 C 1514.96875 1355.691406 1496.109375 1332.851562 1470.039062 1329.96875 C 1457.519531 1328.578125 1444.980469 1332.078125 1435.179688 1339.691406 C 1425.378906 1347.300781 1419.121094 1358.398438 1417.78125 1370.539062 "/>
<path fill-rule="nonzero" fill="rgb(0%, 0%, 36.083984%)" fill-opacity="1" d="M 1822.710938 1134.179688 L 2103.601562 1289.519531 C 2109.621094 1292.839844 2111.929688 1301.320312 2108.570312 1308.910156 C 2105.199219 1316.5 2097.480469 1320.261719 2091.460938 1316.929688 L 1810.578125 1161.589844 C 1804.558594 1158.261719 1802.25 1149.789062 1805.609375 1142.199219 C 1808.96875 1134.609375 1816.691406 1130.851562 1822.710938 1134.179688 "/>
<path fill-rule="nonzero" fill="rgb(33.325195%, 59.959412%, 100%)" fill-opacity="1" d="M 1762.160156 1145.710938 C 1760.808594 1157.851562 1764.5 1170.050781 1772.398438 1179.621094 C 1780.300781 1189.179688 1791.769531 1195.328125 1804.289062 1196.71875 C 1830.359375 1199.601562 1853.75 1181.429688 1856.550781 1156.140625 C 1859.351562 1130.851562 1840.480469 1108.019531 1814.421875 1105.128906 C 1801.898438 1103.75 1789.359375 1107.25 1779.558594 1114.859375 C 1769.761719 1122.46875 1763.5 1133.558594 1762.160156 1145.710938 "/>
<path fill-rule="nonzero" fill="rgb(0%, 0%, 36.083984%)" fill-opacity="1" d="M 2103.238281 1301.191406 L 2458.851562 968.480469 C 2463.871094 963.78125 2472.71875 964.460938 2478.800781 970.121094 C 2484.878906 975.769531 2485.820312 984.199219 2480.800781 988.898438 L 2125.191406 1321.609375 C 2120.171875 1326.308594 2111.320312 1325.640625 2105.238281 1319.980469 C 2099.160156 1314.320312 2098.21875 1305.890625 2103.238281 1301.191406 "/>
<path fill-rule="nonzero" fill="rgb(33.325195%, 59.959412%, 100%)" fill-opacity="1" d="M 2064.078125 1304.871094 C 2062.730469 1317.011719 2066.421875 1329.210938 2074.320312 1338.78125 C 2082.21875 1348.339844 2093.699219 1354.488281 2106.210938 1355.878906 C 2132.28125 1358.761719 2155.679688 1340.589844 2158.46875 1315.300781 C 2161.269531 1290.011719 2142.398438 1267.179688 2116.339844 1264.300781 C 2103.820312 1262.910156 2091.28125 1266.410156 2081.480469 1274.019531 C 2071.679688 1281.628906 2065.421875 1292.71875 2064.078125 1304.871094 "/>
<path fill-rule="nonzero" fill="rgb(96.875%, 77.34375%, 37.646484%)" fill-opacity="1" d="M 2419.339844 1048.570312 C 2417.988281 1060.71875 2421.679688 1072.921875 2429.578125 1082.480469 C 2437.480469 1092.050781 2448.960938 1098.199219 2461.46875 1099.578125 C 2487.539062 1102.46875 2510.941406 1084.300781 2513.730469 1059.011719 C 2516.53125 1033.71875 2497.660156 1010.878906 2471.601562 1008 C 2459.078125 1006.621094 2446.539062 1010.109375 2436.738281 1017.71875 C 2426.941406 1025.328125 2420.679688 1036.429688 2419.339844 1048.570312 "/>
<path fill-rule="nonzero" fill="rgb(0%, 0%, 36.083984%)" fill-opacity="1" d="M 1603.28125 1508.566406 L 1603.28125 1715.636719 L 1720.109375 1715.636719 C 1734.078125 1715.636719 1734.078125 1715.636719 1741.460938 1722.429688 C 1749.03125 1729.222656 1749.03125 1729.222656 1749.03125 1739.507812 C 1749.03125 1749.988281 1749.03125 1749.988281 1741.648438 1756.585938 C 1734.28125 1762.988281 1734.28125 1762.988281 1720.109375 1762.988281 L 1580.960938 1762.988281 C 1562.140625 1762.988281 1562.140625 1762.988281 1553.789062 1754.644531 C 1545.640625 1746.300781 1545.640625 1746.300781 1545.640625 1727.667969 L 1545.640625 1508.566406 C 1545.640625 1491.101562 1545.640625 1491.101562 1553.410156 1482.371094 C 1561.359375 1473.640625 1561.359375 1473.640625 1574.171875 1473.640625 C 1587.171875 1473.640625 1587.171875 1473.640625 1595.128906 1482.371094 C 1603.28125 1490.910156 1603.28125 1490.910156 1603.28125 1508.566406 "/>
<path fill-rule="nonzero" fill="rgb(0%, 0%, 36.083984%)" fill-opacity="1" d="M 1893.378906 1720.101562 L 1847.769531 1538.84375 L 1847.769531 1735.238281 C 1847.769531 1751.539062 1847.769531 1751.539062 1840.398438 1759.691406 C 1833.21875 1767.839844 1833.21875 1767.839844 1821.191406 1767.839844 C 1809.539062 1767.839844 1809.539062 1767.839844 1802.171875 1759.882812 C 1794.789062 1751.734375 1794.789062 1751.734375 1794.789062 1735.238281 L 1794.789062 1510.121094 C 1794.789062 1491.488281 1794.789062 1491.488281 1804.5 1485.089844 C 1814.199219 1478.488281 1814.199219 1478.488281 1830.699219 1478.488281 L 1848.550781 1478.488281 C 1864.660156 1478.488281 1864.660156 1478.488281 1871.839844 1481.398438 C 1879.210938 1484.308594 1879.210938 1484.308594 1882.710938 1491.878906 C 1886.199219 1499.449219 1886.199219 1499.449219 1890.660156 1516.523438 L 1932 1672.359375 L 1973.328125 1516.523438 C 1977.800781 1499.449219 1977.800781 1499.449219 1981.289062 1491.878906 C 1984.78125 1484.308594 1984.78125 1484.308594 1991.96875 1481.398438 C 1999.339844 1478.488281 1999.339844 1478.488281 2015.449219 1478.488281 L 2033.300781 1478.488281 C 2049.800781 1478.488281 2049.800781 1478.488281 2059.5 1485.089844 C 2069.199219 1491.488281 2069.199219 1491.488281 2069.199219 1510.121094 L 2069.199219 1735.238281 C 2069.199219 1751.539062 2069.199219 1751.539062 2061.828125 1759.691406 C 2054.648438 1767.839844 2054.648438 1767.839844 2042.421875 1767.839844 C 2030.96875 1767.839844 2030.96875 1767.839844 2023.601562 1759.691406 C 2016.21875 1751.539062 2016.21875 1751.539062 2016.21875 1735.238281 L 2016.21875 1538.84375 L 1970.621094 1720.101562 C 1966.148438 1737.761719 1966.148438 1737.761719 1963.238281 1746.105469 C 1960.53125 1754.257812 1960.53125 1754.257812 1952.960938 1761.050781 C 1945.390625 1767.839844 1945.390625 1767.839844 1932 1767.839844 C 1921.910156 1767.839844 1921.910156 1767.839844 1914.921875 1763.378906 C 1907.929688 1759.109375 1907.929688 1759.109375 1904.050781 1752.316406 C 1900.171875 1745.523438 1900.171875 1745.523438 1897.839844 1737.371094 C 1895.710938 1729.027344 1895.710938 1729.027344 1893.378906 1720.101562 "/>
<path fill-rule="nonzero" fill="rgb(0%, 0%, 36.083984%)" fill-opacity="1" d="M 2355.609375 1677.601562 C 2355.609375 1703.410156 2355.609375 1703.410156 2342.21875 1723.980469 C 2329.03125 1744.554688 2329.03125 1744.554688 2303.410156 1756.195312 C 2277.789062 1767.839844 2277.789062 1767.839844 2242.671875 1767.839844 C 2200.558594 1767.839844 2200.558594 1767.839844 2173.191406 1751.929688 C 2153.789062 1740.476562 2153.789062 1740.476562 2141.558594 1721.460938 C 2129.53125 1702.246094 2129.53125 1702.246094 2129.53125 1684.199219 C 2129.53125 1673.71875 2129.53125 1673.71875 2136.710938 1666.34375 C 2144.078125 1658.773438 2144.078125 1658.773438 2155.339844 1658.773438 C 2164.460938 1658.773438 2164.460938 1658.773438 2170.671875 1664.597656 C 2177.070312 1670.421875 2177.070312 1670.421875 2181.539062 1681.871094 C 2186.96875 1695.453125 2186.96875 1695.453125 2193.179688 1704.574219 C 2199.589844 1713.695312 2199.589844 1713.695312 2211.039062 1719.710938 C 2222.480469 1725.535156 2222.480469 1725.535156 2241.121094 1725.535156 C 2266.730469 1725.535156 2266.730469 1725.535156 2282.648438 1713.695312 C 2298.75 1701.664062 2298.75 1701.664062 2298.75 1683.808594 C 2298.75 1669.644531 2298.75 1669.644531 2290.019531 1660.910156 C 2281.480469 1651.984375 2281.480469 1651.984375 2267.699219 1647.324219 C 2254.121094 1642.667969 2254.121094 1642.667969 2231.21875 1637.429688 C 2200.558594 1630.246094 2200.558594 1630.246094 2179.789062 1620.738281 C 2159.21875 1611.035156 2159.21875 1611.035156 2146.988281 1594.539062 C 2134.960938 1577.851562 2134.960938 1577.851562 2134.960938 1553.203125 C 2134.960938 1529.722656 2134.960938 1529.722656 2147.769531 1511.480469 C 2160.578125 1493.238281 2160.578125 1493.238281 2184.839844 1483.53125 C 2209.089844 1473.640625 2209.089844 1473.640625 2241.890625 1473.640625 C 2268.089844 1473.640625 2268.089844 1473.640625 2287.109375 1480.230469 C 2306.320312 1486.640625 2306.320312 1486.640625 2318.941406 1497.511719 C 2331.550781 1508.179688 2331.550781 1508.179688 2337.371094 1520.019531 C 2343.191406 1531.855469 2343.191406 1531.855469 2343.191406 1543.109375 C 2343.191406 1553.398438 2343.191406 1553.398438 2335.820312 1561.742188 C 2328.640625 1569.894531 2328.640625 1569.894531 2317.769531 1569.894531 C 2307.871094 1569.894531 2307.871094 1569.894531 2302.628906 1565.039062 C 2297.589844 1559.996094 2297.589844 1559.996094 2291.570312 1548.738281 C 2283.808594 1532.632812 2283.808594 1532.632812 2272.941406 1523.703125 C 2262.070312 1514.585938 2262.070312 1514.585938 2238.011719 1514.585938 C 2215.691406 1514.585938 2215.691406 1514.585938 2201.910156 1524.480469 C 2188.328125 1534.183594 2188.328125 1534.183594 2188.328125 1547.964844 C 2188.328125 1556.503906 2188.328125 1556.503906 2192.988281 1562.710938 C 2197.640625 1568.921875 2197.640625 1568.921875 2205.800781 1573.386719 C 2213.949219 1577.851562 2213.949219 1577.851562 2222.289062 1580.371094 C 2230.640625 1582.894531 2230.640625 1582.894531 2249.851562 1587.746094 C 2273.910156 1593.375 2273.910156 1593.375 2293.320312 1600.167969 C 2312.921875 1606.960938 2312.921875 1606.960938 2326.511719 1616.664062 C 2340.28125 1626.367188 2340.28125 1626.367188 2347.851562 1641.308594 C 2355.609375 1656.058594 2355.609375 1656.058594 2355.609375 1677.601562 "/>
<path fill-rule="nonzero" fill="rgb(33.325195%, 59.959412%, 100%)" fill-opacity="1" d="M 2888.488281 939.550781 C 2860.859375 994.53125 2807.308594 1101.160156 2807.308594 1101.160156 C 2709.488281 1293.628906 2197.96875 1036.980469 2292.789062 849.859375 C 2292.789062 849.859375 2320.808594 795.871094 2385.269531 667.601562 C 2401.75 634.808594 2435.808594 632.089844 2466.050781 647.53125 C 2546.199219 688.441406 2779.21875 802.929688 2859.558594 843.308594 C 2888.171875 857.691406 2912.128906 892.511719 2901.050781 914.558594 L 2888.488281 939.550781 "/>
<path fill-rule="nonzero" fill="rgb(100%, 100%, 100%)" fill-opacity="1" d="M 2873.46875 1133.160156 C 2853.019531 1149.769531 2821.550781 1183.5 2812.96875 1208.390625 C 2804.390625 1233.28125 2818.710938 1249.320312 2833.859375 1256.800781 C 2849.011719 1264.28125 2864.980469 1263.191406 2877.941406 1247.941406 C 2890.898438 1232.691406 2900.859375 1203.269531 2906.171875 1179.191406 C 2911.46875 1155.109375 2912.121094 1136.359375 2907.738281 1126.71875 C 2903.351562 1117.089844 2893.921875 1116.558594 2873.46875 1133.160156 "/>
<path fill-rule="nonzero" fill="rgb(33.325195%, 59.959412%, 100%)" fill-opacity="1" d="M 3107.710938 977.371094 L 2783.019531 577.171875 C 2771.179688 562.578125 2746.261719 550.179688 2727.140625 549.371094 L 2213.519531 527.679688 C 2194.398438 526.871094 2188.53125 537.960938 2200.371094 552.550781 L 2525.058594 952.75 C 2536.898438 967.339844 2561.820312 979.738281 2580.941406 980.539062 L 3094.558594 1002.238281 C 3113.679688 1003.050781 3119.550781 991.960938 3107.710938 977.371094 "/>
<path fill-rule="nonzero" fill="rgb(100%, 100%, 100%)" fill-opacity="1" d="M 2968.679688 966.960938 L 2683.839844 758.199219 C 2678.578125 754.339844 2670.761719 754.160156 2666.820312 760.980469 C 2662.890625 767.800781 2664.96875 774.738281 2670.25 778.570312 L 2956.050781 989.570312 L 2915.410156 1069.320312 C 2915.410156 1069.320312 2919.199219 1096.351562 2937.769531 1074.890625 C 2947.238281 1063.929688 2970.140625 1003.261719 2983.648438 988.828125 C 2989.03125 983.078125 2973.941406 970.820312 2968.679688 966.960938 "/>
<path fill-rule="nonzero" fill="rgb(100%, 100%, 100%)" fill-opacity="1" d="M 2691.511719 738.898438 C 2698.460938 746.261719 2702.269531 755.601562 2702.101562 764.859375 C 2701.929688 774.109375 2697.789062 782.53125 2690.601562 788.261719 C 2675.628906 800.179688 2651.75 797.410156 2637.28125 782.078125 C 2622.800781 766.738281 2623.210938 744.648438 2638.179688 732.71875 C 2645.378906 727 2655.03125 724.429688 2665.039062 725.589844 C 2675.039062 726.75 2684.558594 731.53125 2691.511719 738.898438 "/>
<path fill-rule="nonzero" fill="rgb(100%, 100%, 100%)" fill-opacity="1" d="M 2940.28125 1073.78125 C 2945.929688 1080.269531 2948.800781 1088.710938 2948.261719 1097.25 C 2947.71875 1105.789062 2943.808594 1113.71875 2937.390625 1119.308594 C 2924.03125 1130.941406 2903.671875 1129.410156 2891.898438 1115.890625 C 2880.140625 1102.378906 2881.429688 1082 2894.789062 1070.371094 C 2901.210938 1064.78125 2909.609375 1062.011719 2918.140625 1062.648438 C 2926.671875 1063.289062 2934.628906 1067.289062 2940.28125 1073.78125 "/>
</svg>
